<?xml version="1.0" encoding="UTF-8"?>
<!DOCTYPE svg PUBLIC "-//W3C//DTD SVG 1.0//EN"
	"http://www.w3.org/TR/2001/REC-SVG-20010904/DTD/svg10.dtd">
<svg xmlns="http://www.w3.org/2000/svg" version="1.0" width="293.02127" height="339.82977" id="s1">
<path d="M21.244681,220.18085L0.5,146.24468L34.542553,120.18085L62.202128,184.01064L79.755319,172.84043L84.010638,182.4149L149.43617,134.54256L216.45745,186.67022L231.88297,179.75532L162.73404,125.5L226.03191,68.053191L268.05319,101.03192L263.79787,112.73405L292.52128,136.1383L282.94681,168.0532L263.79787,176.56383L251.56383,216.45745L229.75532,199.43617L215.39362,206.35107L205.81915,241.45745L143.05319,237.20213L115.92553,252.62766L109.01064,234.01064L101.56383,233.47873L94.648936,221.24468L41.989362,219.11702L38.265958,207.94681L21.244681,220.18085zM166.98936,206.35107L126.56383,206.35107L146.24468,172.30851L166.98936,206.35107z" id="p1" style="fill:#000;fill-opacity:1;fill-rule:evenodd;stroke:#000;stroke-width:1px;stroke-linecap:butt;stroke-linejoin:miter;stroke-opacity:1"/>
<path d="M89.861702,162.73405L59.542553,91.989361L87.734043,71.24468L76.56383,58.478723L150.5,0.5L214.32979,51.563829L151.56383,108.47873L156.35106,113.79788L89.861702,162.73405z" id="p2" style="fill:#000;fill-opacity:1;fill-rule:evenodd;stroke:#000;stroke-width:1px;stroke-linecap:butt;stroke-linejoin:miter;stroke-opacity:1"/>
<path d="M41.989362,243.58511L98.904251,246.24468L104.75532,268.05319L112.73405,263.26596L118.0532,280.28724L140.39361,270.18085L186.67021,273.37234L193.58511,249.43617L220.18085,252.09575L224.96808,236.67022L262.73404,264.86171L257.41489,284.54256L230.81915,282.4149L216.98936,322.84043L186.67021,322.30851L179.75532,339.32979L110.60638,339.32979L102.62765,316.98937L71.776596,317.52128L65.925532,296.24468L59.542554,298.90426L41.989362,243.58511z" id="p3" style="fill:#000;fill-opacity:1;fill-rule:evenodd;stroke:#000;stroke-width:1px;stroke-linecap:butt;stroke-linejoin:miter;stroke-opacity:1"/>
</svg>